<?xml version="1.0" encoding="utf-8"?>
<svg xmlns="http://www.w3.org/2000/svg" viewBox="1 1 512 512" width="512px" height="512px" xmlns:bx="https://boxy-svg.com"><defs><bx:export><bx:file format="svg"/><bx:file format="svg" href="#object-0" path="Untitled 2.svg"/></bx:export></defs><g transform="matrix(2.909090995788574, 0, 0, 2.909090995788574, -150.51132202148438, -153.2312774658203)" id="object-0"><g><path d="M225.656,166.222c1.339,0 2.426,-1.087 2.426,-2.426l0,-4.852c0,-1.338 -1.087,-2.425 -2.426,-2.425l-171.148,0c-1.339,0 -2.426,1.087 -2.426,2.425l0,4.852c0,1.339 1.087,2.426 2.426,2.426l171.148,0Z" style="fill:#8c8c8c;"/><path d="M225.656,125.516c1.339,0 2.426,-1.087 2.426,-2.426l0,-4.851c0,-1.339 -1.087,-2.426 -2.426,-2.426l-171.148,0c-1.339,0 -2.426,1.087 -2.426,2.426l0,4.851c0,1.339 1.087,2.426 2.426,2.426l171.148,0Z" style="fill:#8c8c8c;"/><path d="M225.656,145.869c1.339,0 2.426,-1.087 2.426,-2.426l0,-4.851c0,-1.339 -1.087,-2.426 -2.426,-2.426l-171.148,0c-1.339,0 -2.426,1.087 -2.426,2.426l0,4.851c0,1.339 1.087,2.426 2.426,2.426l171.148,0Z" style="fill:#8c8c8c;"/><path d="M225.656,105.163c1.339,0 2.426,-1.086 2.426,-2.425l0,-4.852c0,-1.339 -1.087,-2.426 -2.426,-2.426l-171.148,0c-1.339,0 -2.426,1.087 -2.426,2.426l0,4.852c0,1.339 1.087,2.425 2.426,2.425l171.148,0Z" style="fill:#8c8c8c;"/><path d="M225.656,186.574c1.339,0 2.426,-1.087 2.426,-2.425l0,-4.852c0,-1.339 -1.087,-2.426 -2.426,-2.426l-171.148,0c-1.339,0 -2.426,1.087 -2.426,2.426l0,4.852c0,1.338 1.087,2.425 2.426,2.425l171.148,0Z" style="fill:#8c8c8c;"/><path d="M114.878,226.592c0,1.338 1.087,2.425 2.425,2.425l4.852,0c1.339,0 2.426,-1.087 2.426,-2.425l0,-171.149c0,-1.339 -1.087,-2.426 -2.426,-2.426l-4.852,0c-1.338,0 -2.425,1.087 -2.425,2.426l0,171.149Z" style="fill:#8c8c8c;"/><path d="M155.583,226.592c0,1.338 1.087,2.425 2.426,2.425l4.851,0c1.339,0 2.426,-1.087 2.426,-2.425l0,-171.149c0,-1.339 -1.087,-2.426 -2.426,-2.426l-4.851,0c-1.339,0 -2.426,1.087 -2.426,2.426l0,171.149Z" style="fill:#8c8c8c;"/><path d="M135.23,226.592c0,1.338 1.087,2.425 2.426,2.425l4.852,0c1.338,0 2.425,-1.087 2.425,-2.425l0,-171.149c0,-1.339 -1.087,-2.426 -2.425,-2.426l-4.852,0c-1.339,0 -2.426,1.087 -2.426,2.426l0,171.149Z" style="fill:#8c8c8c;"/><path d="M175.936,226.592c0,1.338 1.087,2.425 2.426,2.425l4.851,0c1.339,0 2.426,-1.087 2.426,-2.425l0,-171.149c0,-1.339 -1.087,-2.426 -2.426,-2.426l-4.851,0c-1.339,0 -2.426,1.087 -2.426,2.426l0,171.149Z" style="fill:#8c8c8c;"/><path d="M94.525,226.592c0,1.338 1.087,2.425 2.426,2.425l4.851,0c1.339,0 2.426,-1.087 2.426,-2.425l0,-171.149c0,-1.339 -1.087,-2.426 -2.426,-2.426l-4.851,0c-1.339,0 -2.426,1.087 -2.426,2.426l0,171.149Z" style="fill:#8c8c8c;"/></g><path d="M189.069,210.998c11.587,0 20.994,-9.407 20.994,-20.994l0,-97.973c0,-11.587 -9.407,-20.995 -20.994,-20.995l-97.974,0c-11.587,0 -20.994,9.408 -20.994,20.995l0,97.973c0,11.587 9.407,20.994 20.994,20.994l97.974,0Z" style="fill:#333;"/><path d="M 94.309 168.885 C 93.821 168.885 93.395 168.716 93.028 168.382 C 92.663 168.048 92.481 167.605 92.481 167.056 L 92.481 157.185 C 92.481 156.212 92.755 155.479 93.303 154.992 C 93.852 154.504 94.431 154.077 95.04 153.712 L 114.873 140.551 L 95.04 127.48 C 94.431 127.114 93.852 126.657 93.303 126.109 C 92.755 125.562 92.481 124.829 92.481 123.914 L 92.481 114.044 C 92.481 113.496 92.663 113.053 93.028 112.719 C 93.395 112.383 93.821 112.216 94.309 112.216 C 94.553 112.216 94.812 112.278 95.086 112.398 C 95.36 112.521 95.618 112.644 95.863 112.764 L 128.858 135.158 C 129.773 135.766 130.442 136.345 130.869 136.894 C 131.296 137.443 131.51 138.204 131.51 139.18 L 131.51 141.921 C 131.51 142.835 131.296 143.581 130.869 144.16 C 130.442 144.739 129.773 145.333 128.858 145.943 L 95.863 168.338 C 95.618 168.458 95.36 168.581 95.086 168.701 C 94.812 168.823 94.553 168.885 94.309 168.885 Z" style="fill: rgb(255, 255, 255); text-transform: capitalize; text-wrap-mode: nowrap;"/><path d="M 139.136 175.391 C 138.507 175.391 137.99 175.177 137.588 174.747 C 137.189 174.317 136.988 173.816 136.988 173.245 L 136.988 165.165 C 136.988 164.536 137.189 164.019 137.588 163.617 C 137.99 163.217 138.507 163.017 139.136 163.017 L 190.184 163.017 C 190.758 163.017 191.258 163.217 191.689 163.617 C 192.116 164.019 192.332 164.536 192.332 165.165 L 192.332 173.245 C 192.332 173.816 192.116 174.317 191.689 174.747 C 191.258 175.177 190.758 175.391 190.184 175.391 L 139.136 175.391 Z" style="fill: rgb(255, 255, 255); text-transform: capitalize; text-wrap-mode: nowrap;"/></g></svg>